<?xml version="1.0" encoding="UTF-8" standalone="no"?><!DOCTYPE svg PUBLIC "-//W3C//DTD SVG 1.1//EN" "http://www.w3.org/Graphics/SVG/1.1/DTD/svg11.dtd"><svg width="100%" height="100%" viewBox="0 0 207 313" version="1.1" xmlns="http://www.w3.org/2000/svg" xmlns:xlink="http://www.w3.org/1999/xlink" xml:space="preserve" xmlns:serif="http://www.serif.com/" style="fill-rule:evenodd;clip-rule:evenodd;stroke-linejoin:round;stroke-miterlimit:2;"><g><path d="M136.155,276.894c-0,5.652 -2.107,11.509 -6.32,17.572c-4.419,5.754 -10.096,10.199 -17.032,13.333c-6.936,3.134 -13.693,4.701 -20.269,4.701c-5.857,-0 -11.098,-1.696 -15.722,-5.087c-4.419,-3.391 -6.628,-7.912 -6.628,-13.564c-0,-6.062 2.209,-11.971 6.628,-17.725c2.055,-2.261 4.572,-4.599 7.552,-7.014c2.98,-2.415 6.269,-4.804 9.865,-7.167c3.802,-1.644 7.27,-2.826 10.405,-3.545c3.134,-0.72 6.191,-1.079 9.171,-1.079c6.268,-0 11.817,1.747 16.647,5.24l-0,-171.092l5.703,-0l-0,185.427Z" style="fill-rule:nonzero;"/><path d="M136.155,214.55c-0,5.652 -2.107,11.509 -6.32,17.572c-4.419,5.754 -10.096,10.199 -17.032,13.333c-6.936,3.134 -13.693,4.701 -20.269,4.701c-5.857,-0 -11.098,-1.696 -15.722,-5.087c-4.419,-3.391 -6.628,-7.912 -6.628,-13.564c-0,-6.062 2.209,-11.971 6.628,-17.726c2.055,-2.26 4.572,-4.598 7.552,-7.013c2.98,-2.415 6.269,-4.804 9.865,-7.167c3.802,-1.644 7.27,-2.826 10.405,-3.545c3.134,-0.72 6.191,-1.079 9.171,-1.079c6.268,-0 11.817,1.747 16.647,5.24l-0,-171.092l5.703,-0l-0,185.427Z" style="fill-rule:nonzero;"/><path d="M136.155,152.137c-0,5.652 -2.107,11.509 -6.32,17.571c-4.419,5.755 -10.096,10.199 -17.032,13.333c-6.936,3.135 -13.693,4.702 -20.269,4.702c-5.857,-0 -11.098,-1.696 -15.722,-5.087c-4.419,-3.391 -6.628,-7.912 -6.628,-13.564c-0,-6.063 2.209,-11.971 6.628,-17.726c2.055,-2.261 4.572,-4.598 7.552,-7.013c2.98,-2.415 6.269,-4.804 9.865,-7.168c3.802,-1.644 7.27,-2.825 10.405,-3.545c3.134,-0.719 6.191,-1.079 9.171,-1.079c6.268,0 11.817,1.747 16.647,5.241l-0,-137.802l5.703,-0l-0,152.137Z" style="fill-rule:nonzero;"/></g></svg>