<?xml version="1.0" encoding="UTF-8" standalone="no"?><!DOCTYPE svg PUBLIC "-//W3C//DTD SVG 1.1//EN" "http://www.w3.org/Graphics/SVG/1.1/DTD/svg11.dtd"><svg width="100%" height="100%" viewBox="0 0 207 313" version="1.1" xmlns="http://www.w3.org/2000/svg" xmlns:xlink="http://www.w3.org/1999/xlink" xml:space="preserve" xmlns:serif="http://www.serif.com/" style="fill-rule:evenodd;clip-rule:evenodd;stroke-linejoin:round;stroke-miterlimit:2;"><g><path d="M49.94,67.348l-13.692,2.22l0,-20.352l13.692,-3.146l-0,-31.823l11.286,-0l0,29.603l20.538,-2.96l-0,-40.89l9.066,0l-0,39.409l14.431,-2.405l0,21.278l-14.431,2.22l-0,30.343l14.431,-3.7l0,22.757l-14.431,2.221l-0,31.823l-9.066,0l-0,-30.343l-20.538,2.96l0,41.075l-11.286,-0l-0,-38.67l-13.692,2.221l0,-21.278l13.692,-2.96l-0,-29.603Zm31.824,-4.441l-20.538,2.22l0,30.344l20.538,-3.886l-0,-28.678Z" style="fill-rule:nonzero;"/><path d="M111.439,153.382l8.325,0l0,92.511c7.895,-5.674 16.467,-8.511 25.718,-8.511c6.414,-0 12.119,1.788 17.115,5.365c4.995,3.577 7.493,8.388 7.493,14.432c0,4.317 -1.85,8.387 -5.551,12.211c-1.603,2.22 -3.792,4.472 -6.568,6.753c-2.775,2.282 -6.013,4.78 -9.713,7.494l-19.798,14.431c-3.577,2.344 -6.753,4.78 -9.528,7.309c-2.775,2.528 -5.273,4.903 -7.493,7.123l-0,-159.118Zm8.325,143.206l11.287,-11.286c2.097,-2.097 3.978,-3.885 5.643,-5.366c1.665,-1.48 2.991,-3.022 3.978,-4.625c5.057,-5.797 7.586,-11.595 7.586,-17.392c-0,-1.974 -0.401,-3.67 -1.203,-5.088c-0.802,-1.419 -1.696,-2.745 -2.683,-3.978c-0.987,-0.74 -2.097,-1.419 -3.33,-2.035c-1.234,-0.617 -2.899,-0.925 -4.996,-0.925c-7.031,-0 -12.458,3.762 -16.282,11.286l0,39.409Z" style="fill-rule:nonzero;"/></g></svg>