<?xml version="1.0" encoding="UTF-8" standalone="no"?><!DOCTYPE svg PUBLIC "-//W3C//DTD SVG 1.1//EN" "http://www.w3.org/Graphics/SVG/1.1/DTD/svg11.dtd"><svg width="100%" height="100%" viewBox="0 0 207 313" version="1.1" xmlns="http://www.w3.org/2000/svg" xmlns:xlink="http://www.w3.org/1999/xlink" xml:space="preserve" xmlns:serif="http://www.serif.com/" style="fill-rule:evenodd;clip-rule:evenodd;stroke-linejoin:round;stroke-miterlimit:2;"><path d="M110.791,172.615c-4.882,1.594 -8.917,4.284 -12.105,8.07c-3.189,3.786 -5.131,7.921 -5.829,12.404c-0.697,4.484 -0.124,8.918 1.719,13.301c1.843,4.384 5.305,7.921 10.387,10.611c1.195,0 1.943,0.499 2.241,1.495c0.299,0.996 -0.149,1.494 -1.345,1.494c-4.882,-0.996 -9.166,-3.038 -12.852,-6.127c-6.875,-5.679 -10.661,-13.002 -11.359,-21.969c-0.398,-4.484 0.025,-8.818 1.271,-13.002c1.245,-4.185 2.964,-8.021 5.156,-11.508c2.69,-3.686 5.878,-6.875 9.565,-9.565c0.199,-0.199 0.772,-0.647 1.718,-1.345c0.947,-0.697 1.868,-1.345 2.765,-1.943c0.897,-0.597 2.242,-1.544 4.035,-2.839l-5.529,-26.602c-4.882,4.085 -9.715,8.593 -14.497,13.525c-4.782,4.932 -9.116,10.138 -13.002,15.617c-3.886,5.48 -6.999,11.284 -9.341,17.411c-2.341,6.128 -3.512,12.579 -3.512,19.354c0,6.277 1.32,12.18 3.961,17.71c2.64,5.53 6.152,10.337 10.536,14.422c4.384,4.085 9.44,7.298 15.169,9.639c5.729,2.342 11.532,3.512 17.411,3.512c0.199,0 1.121,-0.099 2.765,-0.298c1.644,-0.2 3.387,-0.449 5.23,-0.748c1.844,-0.299 3.537,-0.622 5.082,-0.971c1.544,-0.349 2.316,-0.722 2.316,-1.121l-0.896,-4.185c-3.886,-19.627 -7.573,-38.408 -11.06,-56.342Zm5.231,-0.598l12.255,59.332c7.074,-2.69 11.856,-7.299 14.347,-13.824c2.491,-6.526 3.064,-13.152 1.719,-19.877c-1.345,-6.726 -4.509,-12.679 -9.49,-17.86c-4.982,-5.181 -11.259,-7.771 -18.831,-7.771Zm-15.692,-79.956c3.088,-1.594 5.953,-3.985 8.593,-7.173c2.64,-3.189 5.081,-6.601 7.323,-10.238c2.242,-3.636 4.185,-7.348 5.829,-11.134c1.644,-3.786 2.964,-7.223 3.96,-10.312c1.096,-3.288 1.843,-6.974 2.242,-11.059c0.398,-4.085 -0.249,-7.522 -1.943,-10.312c-1.196,-2.491 -2.765,-3.936 -4.708,-4.334c-1.943,-0.399 -3.885,-0.249 -5.828,0.448c-1.943,0.698 -3.786,1.818 -5.53,3.363c-1.743,1.544 -3.014,2.914 -3.811,4.11c-2.192,3.885 -4.11,8.219 -5.754,13.002c-1.644,4.782 -2.764,9.739 -3.362,14.87c-0.598,5.131 -0.673,10.063 -0.224,14.796c0.448,4.732 1.519,9.39 3.213,13.973Zm-4.484,4.633c-1.694,-6.576 -3.188,-13.027 -4.483,-19.354c-1.296,-6.326 -1.943,-12.827 -1.943,-19.503c-0,-4.882 0.349,-10.237 1.046,-16.066c0.697,-5.828 1.968,-11.507 3.811,-17.037c1.843,-5.53 4.384,-10.486 7.622,-14.87c3.238,-4.384 7.547,-7.572 12.927,-9.565c0.499,-0.199 0.997,-0.299 1.495,-0.299c0.697,0 1.519,0.399 2.466,1.196c0.946,0.797 1.943,1.967 2.989,3.512c1.046,1.544 1.968,3.138 2.765,4.782c0.797,1.644 1.394,2.765 1.793,3.363c2.69,5.081 4.658,10.486 5.903,16.215c1.246,5.729 1.968,11.433 2.167,17.112c0.399,8.569 -0.074,17.037 -1.419,25.407c-1.346,8.369 -4.061,16.539 -8.145,24.509c-1.395,2.392 -2.815,4.808 -4.26,7.249c-1.444,2.441 -3.163,4.807 -5.156,7.099c-0.398,0.398 -4.284,4.284 -5.38,5.38c-1.096,1.096 -2.067,2.117 -2.914,3.063c-0.847,0.947 -1.271,1.52 -1.271,1.719l6.128,29.89c-0,-0.199 1.021,-0.199 3.064,0c2.042,0.199 4.284,0.523 6.725,0.972c2.441,0.448 4.732,0.871 6.874,1.27c2.143,0.398 3.413,0.697 3.811,0.897c5.181,2.391 9.64,5.679 13.376,9.863c3.736,4.185 6.725,8.893 8.967,14.123c2.242,5.231 3.363,10.537 3.363,15.917c-0,5.38 -0.797,10.86 -2.391,16.439c-4.085,10.561 -10.611,18.383 -19.578,23.464c-0.997,0.598 -2.416,1.27 -4.26,2.018c-1.843,0.747 -2.565,1.917 -2.167,3.512c2.392,10.86 4.011,18.332 4.857,22.417c0.847,4.085 1.47,9.366 1.869,15.842c0.398,6.177 -0.673,11.757 -3.214,16.738c-2.54,4.982 -5.953,9.042 -10.237,12.18c-4.284,3.139 -8.195,4.982 -11.732,5.53c-3.537,0.548 -5.953,0.822 -7.248,0.822c-4.484,-0 -8.867,-0.847 -13.152,-2.541c-5.28,-1.992 -9.714,-5.031 -13.301,-9.116c-3.586,-4.085 -5.38,-9.067 -5.38,-14.945c0,-3.687 1.071,-7.473 3.213,-11.358c2.142,-3.886 4.957,-6.676 8.444,-8.37c3.886,-1.992 7.398,-2.54 10.536,-1.643c3.139,0.896 5.729,2.59 7.772,5.081c2.042,2.491 3.462,5.505 4.259,9.042c0.797,3.537 0.747,6.849 -0.149,9.938c-0.897,3.089 -2.715,5.704 -5.455,7.846c-2.74,2.142 -6.551,3.114 -11.433,2.914c1.993,3.587 4.782,5.854 8.369,6.8c3.587,0.947 7.273,1.022 11.059,0.225c3.786,-0.798 7.348,-2.267 10.686,-4.409c3.338,-2.142 5.953,-4.459 7.846,-6.95c1.196,-1.793 2.092,-4.134 2.69,-7.024c0.598,-2.889 0.947,-5.903 1.046,-9.042c0.1,-3.138 0,-5.579 -0.298,-7.323c-0.299,-1.743 -0.798,-4.458 -1.495,-8.145c-2.989,-12.055 -4.882,-19.627 -5.679,-22.716c-0.399,-0.996 -1.47,-1.32 -3.213,-0.971c-1.744,0.348 -3.213,0.672 -4.409,0.971c-8.569,1.096 -15.742,0.598 -21.521,-1.495c-8.967,-2.391 -16.863,-6.65 -23.688,-12.777c-6.825,-6.128 -12.304,-13.551 -16.439,-22.269c-4.135,-8.717 -6.202,-15.343 -6.202,-19.876l-0,-8.594c-0,-8.07 1.395,-15.642 4.184,-22.716c5.281,-11.059 11.533,-21.222 18.756,-30.488c7.224,-9.266 15.468,-17.884 24.734,-25.855Z" style="fill-rule:nonzero;"/></svg>